<svg width="124" height="88" viewBox="0 0 124 88" fill="none" xmlns="http://www.w3.org/2000/svg">
<g clip-path="url(#clip0_36_592)">
<path fill-rule="evenodd" clip-rule="evenodd" d="M3.32129 75.293L66.4113 78.74L66.9966 68.5744L65.4164 60.6872C67.933 59.8109 69.0157 58.2919 68.6645 56.1302C68.3134 53.9685 66.7917 52.1281 64.0996 50.6091L63.3973 48.0677C69.2303 48.4183 72.4784 47.2498 73.1417 44.5624C73.805 41.8749 70.6739 39.7425 63.7484 38.165C68.2939 31.6021 69.9618 25.3801 68.7523 19.4988C67.5428 13.6175 62.0219 9.60578 52.1897 7.46359C39.2752 6.72356 31.6864 7.34674 29.4235 9.33313C26.029 12.3127 20.3521 17.454 18.5963 29.9566C16.8406 42.4591 13.9436 54.0561 8.88117 61.3883C3.81875 68.7204 4.404 71.0282 4.05285 72.4303C3.7017 73.8325 3.87728 75.293 3.32129 75.293Z" fill="#D9965D"/>
<path fill-rule="evenodd" clip-rule="evenodd" d="M66.6433 15.5552C64.1442 14.8833 62.8947 16.7383 62.8947 21.12C62.8947 27.6926 60.7861 33.5203 62.6018 34.7472C63.8123 35.5651 64.5933 35.8427 64.9447 35.5798L68.3419 29.0071L69.2205 20.7256L67.5805 16.0372C67.5414 16.0372 67.2291 15.8765 66.6433 15.5552Z" fill="#925D34"/>
<path fill-rule="evenodd" clip-rule="evenodd" d="M40.8364 11.3997L38.3746 18.1312C31.5364 17.1987 29.4221 14.5446 32.0317 10.169C36.7276 5.94591 37.5921 8.43548 40.8364 11.3997Z" fill="#BC6B58"/>
<path fill-rule="evenodd" clip-rule="evenodd" d="M32.7594 8.19383L42.3283 7.22984C39.1679 3.08181 36.6659 1.43135 34.8224 2.27849C32.0571 3.54919 31.5304 6.13442 32.1449 7.09839C32.7594 8.06237 32.7594 8.06237 32.7594 8.19383Z" fill="#874345"/>
<path fill-rule="evenodd" clip-rule="evenodd" d="M83.1495 51.1934L79.8135 66.88L86.8365 84.8452L116.86 83.7935L121.952 65.7408L115.631 50.6676C115.631 50.6091 104.804 50.7844 83.1495 51.1934Z" fill="#C8F5F4"/>
<path d="M5.15021 73.9712C10.3842 65.2886 14.0021 58.8859 16.0042 54.7636C19.0072 48.5801 20.7544 15.7303 29.4344 10.3714" stroke="#FFE6C2" stroke-width="4" stroke-linecap="round" stroke-linejoin="bevel"/>
<path d="M67.655 44.8252C72.1614 43.686 74.8828 43.4231 75.8192 44.0365C76.7556 44.65 79.3015 47.2352 83.4567 51.7922L79.8574 67.2598C74.0927 60.1321 70.8007 56.3346 69.9813 55.8672C69.162 55.3999 68.7816 55.2927 68.8401 55.5459" stroke="black" stroke-width="4.8" stroke-linecap="square" stroke-linejoin="bevel"/>
<path d="M83.5007 51.6899L115.982 51.2225L122.01 66.4126L79.9453 67.0406L87.1292 85.2249L117.065 83.998L121.952 66.3542" stroke="black" stroke-width="4.8" stroke-linecap="square" stroke-linejoin="bevel"/>
<path d="M83.9689 52.2158L87.4219 66.4126" stroke="black" stroke-width="4.8" stroke-linecap="square" stroke-linejoin="bevel"/>
<path d="M115.631 51.5146L114.285 66.4126" stroke="black" stroke-width="4.8" stroke-linecap="square" stroke-linejoin="bevel"/>
<path fill-rule="evenodd" clip-rule="evenodd" d="M62.0805 40.4435L49.3513 45.7892L64.0118 50.872L63.4851 48.4183C70.2154 47.834 73.3465 46.3442 72.8783 43.9489C72.4101 41.5535 70.6251 39.9177 67.5233 39.0413L63.2217 38.6031C63.2217 38.6031 62.8413 39.2166 62.0805 40.4435Z" fill="#B16C5D"/>
<path fill-rule="evenodd" clip-rule="evenodd" d="M50.9178 61.5051C50.7008 68.6885 49.2736 73.6971 47.5078 78.0973L65.5727 78.7399L66.6455 66.2374L65.0363 60.8624C62.6357 61.6804 57.9295 61.8946 50.9178 61.5051Z" fill="#B16C5D"/>
<path d="M40.792 11.3049C37.4747 7.04001 34.5108 6.74789 31.9004 10.4286C27.9849 15.9496 36.387 19.0606 38.1408 18.009" stroke="#2B0000" stroke-width="3" stroke-linecap="round" stroke-linejoin="bevel"/>
<path d="M33.33 7.99784C49.1499 5.76917 59.6014 7.46917 64.6846 13.0978C67.7214 15.7811 69.1204 19.4392 68.8817 24.0722C68.2219 36.8769 61.0669 44.1792 47.4167 45.9791" stroke="#2B0000" stroke-width="3" stroke-linecap="round" stroke-linejoin="bevel"/>
<path d="M41.8673 6.50687C39.3654 2.97227 36.7025 1.76486 33.8787 2.88463C31.0548 4.00441 30.85 5.91291 33.2642 8.6101" stroke="#2B0000" stroke-width="3" stroke-linecap="square" stroke-linejoin="bevel"/>
<path d="M32.7594 8.22308C25.3853 8.69047 20.2741 18.155 17.4258 36.6168C13.1535 64.3094 8.76413 54.728 3.37982 74.8256" stroke="#2B0000" stroke-width="3" stroke-linecap="square" stroke-linejoin="bevel"/>
<path d="M47.8004 46.1398C61.8464 48.7104 68.8109 51.8263 68.6938 55.4875C68.5182 60.9793 64.6556 64.1341 46.5128 60.1613" stroke="#2B0000" stroke-width="3" stroke-linecap="round" stroke-linejoin="bevel"/>
<path d="M64.319 38.5155C69.8204 39.275 72.7174 41.0423 73.01 43.8174C73.3026 46.5925 70.5666 48.1553 64.8019 48.5059" stroke="#2B0000" stroke-width="3" stroke-linecap="square" stroke-linejoin="bevel"/>
<path d="M61.9341 41.2322L64.1581 50.6383" stroke="#2B0000" stroke-width="3" stroke-linecap="round" stroke-linejoin="bevel"/>
<path d="M65.7968 61.213C67.0161 67.1097 67.1185 72.8011 66.1041 78.2871" stroke="#2B0000" stroke-width="3" stroke-linecap="square" stroke-linejoin="bevel"/>
<path d="M34.4274 12.5756L38.4217 14.416" stroke="#2B0000" stroke-width="2" stroke-linecap="round" stroke-linejoin="bevel"/>
<path d="M57.9545 18.973L50.9315 17.9213" stroke="black" stroke-width="5" stroke-linecap="round" stroke-linejoin="bevel"/>
<path d="M65.7676 18.8561L68.2549 20.8133C68.6256 26.5972 68.0696 30.4044 66.5869 32.235" stroke="#2B0000" stroke-width="3" stroke-linecap="round" stroke-linejoin="bevel"/>
</g>
<defs>
<clipPath id="clip0_36_592">
<rect width="124" height="88" fill="white"/>
</clipPath>
</defs>
</svg>
